<?xml version="1.0" standalone="no"?>
<!DOCTYPE svg PUBLIC "-//W3C//DTD SVG 20010904//EN"
 "http://www.w3.org/TR/2001/REC-SVG-20010904/DTD/svg10.dtd">
<svg version="1.0" xmlns="http://www.w3.org/2000/svg"
 width="800.000000pt" height="600.000000pt" viewBox="0 0 800.000000 600.000000"
 preserveAspectRatio="xMidYMid meet">

<g transform="translate(0.000000,600.000000) scale(0.100000,-0.100000)"
fill="#000000" stroke="none">
<path d="M3845 5050 c-503 -39 -965 -255 -1315 -616 -325 -335 -513 -727 -570
-1188 -26 -209 -9 -509 40 -721 133 -570 524 -1073 1051 -1349 692 -362 1548
-293 2175 177 451 338 746 846 814 1401 16 128 13 393 -5 520 -77 552 -367
1043 -809 1374 -398 296 -890 440 -1381 402z m275 -80 c292 -19 529 -85 795
-221 353 -180 663 -495 845 -858 144 -288 210 -564 211 -877 1 -341 -63 -615
-217 -915 -249 -487 -711 -862 -1234 -1003 -871 -233 -1770 135 -2228 914
-256 435 -332 976 -206 1475 48 187 150 422 255 586 328 510 899 852 1500 897
63 5 119 10 124 10 6 1 75 -3 155 -8z"/>
<path d="M3780 4869 c-41 -5 -118 -18 -170 -30 -373 -84 -642 -229 -913 -488
-805 -774 -763 -2060 90 -2789 353 -301 805 -455 1282 -439 475 16 907 203
1250 540 165 162 272 313 376 530 127 264 185 516 185 807 0 1039 -850 1888
-1881 1879 -79 -1 -178 -5 -219 -10z m164 -843 c70 -24 75 -24 122 -9 70 22
233 22 306 -1 193 -59 329 -247 329 -456 0 -329 -300 -558 -617 -470 l-71 19
-54 -22 c-51 -20 -73 -22 -362 -25 l-309 -4 4 294 c4 263 6 299 25 355 87 262
370 405 627 319z m444 -1191 c2 -33 0 -75 -3 -92 -5 -29 -10 -33 -39 -33 l-33
0 -7 87 c-8 96 -3 105 49 101 29 -3 30 -4 33 -63z m-1028 -125 l0 -160 85 0
85 0 0 -50 0 -50 -150 0 -150 0 0 210 0 210 65 0 65 0 0 -160z m520 115 l0
-45 -85 0 -85 0 0 -40 0 -40 70 0 70 0 0 -40 0 -40 -70 0 -70 0 0 -40 0 -40
85 0 85 0 0 -45 0 -45 -155 0 -155 0 0 203 c0 112 3 207 7 210 3 4 73 7 155 7
l148 0 0 -45z m390 -5 l0 -50 -55 0 -55 0 0 -160 0 -160 -70 0 -70 0 0 160 0
160 -60 0 -60 0 0 43 c0 24 3 47 7 50 3 4 87 7 185 7 l178 0 0 -50z m471 32
c4 -4 4 -25 0 -47 l-7 -40 -77 4 c-71 3 -77 2 -77 -17 0 -15 15 -25 62 -42 86
-31 128 -74 128 -131 0 -56 -30 -106 -75 -125 -35 -14 -163 -18 -220 -5 -31 7
-33 15 -19 79 4 19 10 23 32 18 15 -3 54 -6 87 -8 50 -3 60 0 63 14 2 12 -6
22 -25 29 -133 55 -163 84 -163 156 0 62 29 106 81 120 45 13 197 9 210 -5z
m-1222 -488 c29 -6 31 -9 31 -50 l0 -44 -74 0 c-54 0 -77 -4 -87 -16 -18 -22
-24 -118 -9 -155 16 -38 44 -49 121 -49 l60 0 -3 -42 c-4 -49 -16 -55 -116
-57 -138 -2 -212 70 -211 204 1 81 23 136 71 174 45 34 141 50 217 35z m221
-74 l0 -70 55 0 55 0 0 70 0 70 65 0 65 0 0 -200 0 -200 -65 0 -65 0 0 85 0
85 -55 0 -55 0 0 -85 0 -85 -65 0 -65 0 0 200 0 200 65 0 65 0 0 -70z m635
-117 c32 -104 60 -194 62 -200 4 -10 -13 -13 -65 -13 l-70 0 -7 40 -7 41 -61
-3 -61 -3 -9 -37 -9 -38 -68 0 -69 0 35 103 c19 56 48 146 65 200 l30 97 88 0
88 0 58 -187z m395 142 l0 -45 -55 0 -55 0 0 -155 0 -155 -65 0 -65 0 0 155 0
155 -60 0 -60 0 0 45 0 45 180 0 180 0 0 -45z"/>
<path d="M4212 2225 c-6 -28 -14 -60 -18 -72 -6 -21 -3 -23 30 -23 42 0 44 7
18 90 l-18 54 -12 -49z"/>
</g>
</svg>
